<svg width="1058" height="1058" viewBox="0 0 1058 1058" fill="none" xmlns="http://www.w3.org/2000/svg">
<g clip-path="url(#clip0_981_2317)">
<rect width="1058" height="1058" fill="black"/>
<path d="M446.957 325.668L421.957 368.968L400.307 356.468L466.593 241.657L511.534 267.603C517.438 271.012 522.009 274.963 525.247 279.457C528.547 283.841 530.704 288.439 531.716 293.251C532.901 298.017 533.036 302.834 532.121 307.7C531.38 312.52 529.809 317.008 527.41 321.163L525.138 325.099C522.675 329.364 519.48 333.132 515.55 336.403C511.793 339.628 507.491 342.028 502.645 343.604C497.971 345.134 492.879 345.62 487.369 345.063C481.859 344.506 476.151 342.523 470.247 339.114L446.957 325.668ZM458.888 305.001L480.046 317.217C484.857 319.995 489.387 320.861 493.636 319.815C497.994 318.832 501.373 316.263 503.772 312.108L504.908 310.14C507.307 305.984 507.842 301.774 506.514 297.508C505.296 293.306 502.281 289.816 497.47 287.038L476.312 274.823L458.888 305.001Z" fill="white"/>
<path d="M390.994 262.657L413.049 271.77L377.176 358.588L355.121 349.475L360.329 336.873L357.178 335.571C349.181 344.015 338.822 345.609 326.103 340.354C321.786 338.57 318.049 336.206 314.894 333.263C311.738 330.32 309.363 326.811 307.768 322.736C306.172 318.662 305.45 314.128 305.6 309.136C305.916 304.075 307.303 298.569 309.762 292.617L332.182 238.356L354.237 247.469L333.697 297.179C331.141 303.364 330.599 308.809 332.07 313.515C333.589 318.105 337.265 321.605 343.1 324.016C349.751 326.764 355.462 326.665 360.232 323.717C365.166 320.702 369.152 315.518 372.19 308.167L390.994 262.657Z" fill="white"/>
<path d="M324.192 6.04946L274.796 48.805L274.706 90.5458C274.706 90.5458 326.475 116.99 318.73 201.576C318.73 201.576 319.237 226.23 335.981 256.241L360.635 255.734L373.305 226.066L352.74 148.703C352.74 148.703 403.316 209.322 418.358 248.854L451.593 296.549L477.097 291.281L430.521 194.533L498.945 292.729L518.261 284.562L523.942 262.808C523.942 262.808 494.52 208.621 456.574 166.126L491.304 198.025C491.304 198.025 526.24 236.199 544.432 244.362L555.654 236.543L553.192 209.083L468.188 134.944L565.862 179.416C565.862 179.416 574.025 161.224 568.16 152.807C562.295 144.39 488.424 104.172 488.424 104.172C488.424 104.172 477.635 40.8364 409.375 -3.29236L324.192 6.04946Z" fill="#FE5998"/>
<path d="M74.4705 82.9615H156.013V103.347H125.92V196.215H104.563V103.347H74.4705V82.9615Z" fill="white"/>
<path d="M339.302 204.531L268.414 195.109L271.1 174.901L320.818 181.509L324.229 155.849L276.436 149.496L279.122 129.288L326.915 135.641L330.369 109.659L278.726 102.795L281.412 82.587L354.225 92.2655L339.302 204.531Z" fill="white"/>
<path d="M440.19 118.178C440.19 113.648 438.41 109.711 434.851 106.368C431.399 103.024 426.491 101.352 420.128 101.352C414.735 101.352 410.474 102.485 407.346 104.75C404.218 106.907 402.654 109.873 402.654 113.648C402.654 115.59 403.032 117.369 403.787 118.987C404.542 120.497 405.836 121.9 407.67 123.194C409.611 124.38 412.092 125.459 415.112 126.43C418.24 127.4 422.177 128.317 426.923 129.18C438.788 131.337 447.848 134.951 454.104 140.02C460.36 145.09 463.488 152.586 463.488 162.509V164.451C463.488 169.736 462.517 174.535 460.575 178.85C458.742 183.056 456.045 186.67 452.486 189.69C448.926 192.71 444.612 195.029 439.543 196.647C434.473 198.265 428.757 199.074 422.393 199.074C414.95 199.074 408.371 198.049 402.654 196C397.046 193.842 392.354 190.93 388.579 187.263C384.803 183.488 381.945 179.12 380.004 174.158C378.062 169.089 377.091 163.588 377.091 157.655V152.802H398.448V156.685C398.448 163.48 400.389 168.927 404.272 173.025C408.263 177.016 414.411 179.012 422.716 179.012C429.188 179.012 433.988 177.609 437.116 174.805C440.244 172.001 441.808 168.657 441.808 164.774C441.808 162.94 441.484 161.215 440.837 159.597C440.19 157.871 439.057 156.361 437.439 155.067C435.821 153.664 433.61 152.424 430.806 151.345C428.002 150.267 424.442 149.35 420.128 148.595C414.411 147.624 409.18 146.384 404.434 144.874C399.688 143.256 395.536 141.153 391.976 138.564C388.525 135.975 385.828 132.74 383.887 128.857C381.945 124.974 380.974 120.228 380.974 114.619V113.648C380.974 109.01 381.891 104.75 383.725 100.867C385.666 96.876 388.309 93.4245 391.653 90.5123C395.104 87.6001 399.203 85.335 403.949 83.7171C408.802 82.0992 414.195 81.2902 420.128 81.2902C426.815 81.2902 432.747 82.261 437.925 84.2025C443.102 86.0361 447.416 88.5708 450.868 91.8066C454.427 95.0424 457.07 98.7636 458.796 102.97C460.629 107.177 461.546 111.599 461.546 116.237V122.061L440.19 122.061V118.178Z" fill="white"/>
<path d="M650.739 141.282L602.342 204.481L575.881 184.217L553.241 115.323C551.984 111.642 550.807 108.567 549.71 106.097C548.633 103.778 546.938 101.733 544.626 99.9623L541.543 97.6015L555.511 79.3613L559.365 82.3124C561.078 83.6239 562.521 84.9328 563.694 86.239C564.867 87.5451 565.942 88.9797 566.919 90.5428C567.83 92.1915 568.696 94.077 569.516 96.1994C570.336 98.3218 571.249 100.855 572.255 103.799L595.65 174.902L597.962 176.672L634.555 128.888L650.739 141.282Z" fill="white"/>
<path d="M493.789 163.366C494.402 165.661 495.402 167.705 496.789 169.499C498.258 171.165 499.997 172.55 502.006 173.656C504.097 174.633 506.342 175.301 508.739 175.659C511.219 175.889 513.723 175.726 516.251 175.172C521.203 174.087 524.812 172.413 527.076 170.15C529.318 167.782 530.752 165.259 531.38 162.582L550.527 168.325C550.017 170.534 549.162 172.93 547.961 175.512C546.737 177.989 544.951 180.423 542.604 182.814C540.363 185.182 537.42 187.373 533.775 189.386C530.236 191.376 525.886 192.937 520.723 194.068C514.823 195.361 509.242 195.59 503.979 194.755C498.717 193.921 493.903 192.105 489.535 189.308C485.274 186.487 481.576 182.715 478.443 177.991C475.415 173.244 473.186 167.604 471.754 161.072L471.547 160.124C470.231 154.118 470.031 148.42 470.948 143.029C471.97 137.616 473.891 132.778 476.712 128.516C479.532 124.254 483.105 120.656 487.431 117.72C491.839 114.656 496.782 112.524 502.261 111.324C509.004 109.846 515.064 109.788 520.442 111.15C525.796 112.405 530.458 114.531 534.427 117.526C538.373 120.416 541.568 123.912 544.013 128.013C546.434 132.01 548.095 136.063 548.996 140.172L551.316 150.761L493.789 163.366ZM506.051 129.375C500.993 130.483 497.173 132.701 494.589 136.027C491.983 139.248 490.574 142.649 490.365 146.228L527.346 138.125C525.906 134.576 523.235 131.959 519.332 130.274C515.535 128.567 511.108 128.267 506.051 129.375Z" fill="white"/>
<path d="M777.156 193.691L756.938 196.301L746.665 116.713L766.883 114.103L768.415 125.977L771.304 125.605C772.542 120.877 775.035 117.021 778.783 114.036C782.53 111.05 787.131 109.206 792.587 108.502C796.438 108.004 800.104 108.184 803.586 109.039C807.161 109.774 810.398 111.26 813.297 113.495C816.196 115.731 818.596 118.739 820.497 122.517C822.506 126.282 823.862 130.892 824.567 136.348L831.07 186.732L810.853 189.342L805.012 144.092C804.28 138.422 802.316 134.163 799.12 131.312C796.018 128.342 791.9 127.187 786.765 127.85C780.774 128.624 776.544 131.236 774.073 135.688C771.696 140.018 770.942 145.553 771.812 152.293L777.156 193.691Z" fill="white"/>
<path d="M663.979 196.701L654.243 196.765L654.25 197.786L654.468 198.784L663.979 196.701ZM663.283 91.2699L661.199 81.7596L653.495 83.4476L653.547 91.3341L663.283 91.2699ZM724.053 77.9542L733.563 75.8703L731.479 66.36L721.969 68.4439L724.053 77.9542ZM728.096 96.4048L730.179 105.915L739.69 103.831L737.606 94.3209L728.096 96.4048ZM682.701 106.351L680.617 96.8411L672.916 98.5287L672.965 106.413L682.701 106.351ZM682.856 130.872L673.121 130.933L673.197 142.955L684.94 140.382L682.856 130.872ZM722.54 122.176L732.05 120.093L729.966 110.582L720.456 112.666L722.54 122.176ZM726.583 140.627L728.666 150.137L738.177 148.053L736.093 138.543L726.583 140.627ZM682.945 150.189L680.862 140.678L673.14 142.37L673.21 150.275L682.945 150.189ZM683.165 175.002L673.429 175.088L673.535 187.079L685.248 184.512L683.165 175.002ZM726.362 165.536L735.873 163.453L733.789 153.942L724.279 156.026L726.362 165.536ZM730.405 183.987L732.489 193.497L741.999 191.413L739.916 181.903L730.405 183.987ZM664.364 198.458L654.853 200.542L656.937 210.052L666.448 207.968L664.364 198.458ZM673.714 196.636L673.019 91.2056L653.547 91.3341L654.243 196.765L673.714 196.636ZM665.367 100.78L726.137 87.4645L721.969 68.4439L661.199 81.7596L665.367 100.78ZM714.542 80.038L718.585 98.4886L737.606 94.3209L733.563 75.8703L714.542 80.038ZM726.012 86.8945L680.617 96.8411L684.785 115.862L730.179 105.915L726.012 86.8945ZM672.965 106.413L673.121 130.933L692.592 130.81L692.437 106.29L672.965 106.413ZM684.94 140.382L724.624 131.687L720.456 112.666L680.772 121.361L684.94 140.382ZM713.029 124.26L717.072 142.711L736.093 138.543L732.05 120.093L713.029 124.26ZM724.499 131.117L680.862 140.678L685.029 159.699L728.666 150.137L724.499 131.117ZM673.21 150.275L673.429 175.088L692.9 174.916L692.681 150.103L673.21 150.275ZM685.248 184.512L728.446 175.047L724.279 156.026L681.081 165.491L685.248 184.512ZM716.852 167.62L720.895 186.071L739.916 181.903L735.873 163.453L716.852 167.62ZM728.321 174.477L662.28 188.947L666.448 207.968L732.489 193.497L728.321 174.477ZM673.874 196.374L673.489 194.617L654.468 198.784L654.853 200.542L673.874 196.374Z" fill="white"/>
<path d="M838.715 61.1524L919.993 67.7112L918.353 88.0308L888.358 85.6103L861.213 176.589L839.926 174.872L867.07 83.8925L837.075 81.472L838.715 61.1524Z" fill="white"/>
<path d="M898.621 110.516L919.908 112.234L916.186 158.356L952.632 161.297L956.354 115.175L977.641 116.893L968.532 229.779L947.244 228.061L950.992 181.617L914.546 178.675L910.798 225.12L889.511 223.402L898.621 110.516Z" fill="white"/>
<path d="M216.611 210.863L196.815 202.85L214.176 159.958L180.282 146.24L162.922 189.132L143.125 181.119L185.616 76.1392L205.413 84.1517L187.931 127.344L221.824 141.062L239.306 97.8702L259.102 105.883L216.611 210.863Z" fill="white"/>
<path d="M167.485 258.859C167.485 253.556 165.402 248.948 161.236 245.034C157.195 241.12 151.45 239.163 144.001 239.163C137.688 239.163 132.701 240.488 129.039 243.14C125.378 245.665 123.547 249.137 123.547 253.556C123.547 255.829 123.989 257.912 124.873 259.806C125.757 261.574 127.272 263.215 129.418 264.73C131.691 266.119 134.595 267.382 138.13 268.518C141.792 269.654 146.4 270.727 151.955 271.738C165.844 274.263 176.45 278.492 183.773 284.427C191.096 290.361 194.757 299.136 194.757 310.752V313.024C194.757 319.211 193.621 324.83 191.348 329.88C189.202 334.804 186.046 339.034 181.879 342.569C177.712 346.104 172.662 348.819 166.728 350.713C160.794 352.607 154.102 353.554 146.653 353.554C137.941 353.554 130.239 352.354 123.547 349.955C116.982 347.43 111.489 344.021 107.07 339.728C102.651 335.309 99.3052 330.196 97.0325 324.388C94.7598 318.454 93.6235 312.014 93.6235 305.07V299.388H118.623V303.934C118.623 311.888 120.896 318.264 125.441 323.062C130.113 327.734 137.309 330.07 147.031 330.07C154.607 330.07 160.225 328.428 163.887 325.145C167.549 321.863 169.379 317.949 169.379 313.403C169.379 311.257 169.001 309.237 168.243 307.343C167.485 305.323 166.16 303.555 164.266 302.04C162.372 300.398 159.784 298.946 156.501 297.684C153.218 296.421 149.051 295.348 144.001 294.464C137.309 293.328 131.186 291.876 125.63 290.108C120.075 288.214 115.214 285.752 111.047 282.722C107.007 279.692 103.851 275.904 101.578 271.359C99.3052 266.813 98.1688 261.258 98.1688 254.693L98.1688 253.556C98.1688 248.127 99.2421 243.14 101.388 238.594C103.661 233.923 106.755 229.882 110.669 226.473C114.709 223.064 119.507 220.413 125.062 218.519C130.744 216.625 137.057 215.678 144.001 215.678C151.829 215.678 158.773 216.815 164.834 219.087C170.894 221.234 175.945 224.201 179.985 227.989C184.152 231.776 187.245 236.132 189.265 241.056C191.412 245.981 192.485 251.157 192.485 256.586V263.404H167.485V258.859Z" fill="white"/>
<path d="M544.118 318.096H572.509V274.834H546.146V254.555H593.802V318.096H618.137V338.375H544.118V318.096ZM599.041 229.713C599.041 231.966 598.59 234.107 597.689 236.135C596.9 238.05 595.774 239.74 594.309 241.205C592.844 242.557 591.098 243.683 589.07 244.584C587.155 245.373 585.127 245.767 582.987 245.767C580.733 245.767 578.649 245.373 576.734 244.584C574.819 243.683 573.129 242.557 571.664 241.205C570.199 239.74 569.017 238.05 568.115 236.135C567.327 234.107 566.932 231.966 566.932 229.713C566.932 227.46 567.327 225.376 568.115 223.46C569.017 221.433 570.199 219.743 571.664 218.391C573.129 216.926 574.819 215.8 576.734 215.011C578.649 214.11 580.733 213.659 582.987 213.659C585.127 213.659 587.155 214.11 589.07 215.011C591.098 215.8 592.844 216.926 594.309 218.391C595.774 219.743 596.9 221.433 597.689 223.46C598.59 225.376 599.041 227.46 599.041 229.713Z" fill="white"/>
<path d="M200.78 265.847L292.979 241.142L299.156 264.192L265.13 273.309L293.266 378.314L269.118 384.785L240.982 279.779L206.956 288.897L200.78 265.847Z" fill="white"/>
<path d="M609.167 245.665L654.693 230.126C670.227 224.824 683.002 224.533 693.018 229.252C702.993 233.852 710.57 243.74 715.75 258.915L728.23 295.479C733.41 310.655 733.479 323.172 728.439 333.03C723.359 342.769 713.051 350.289 697.517 355.591L651.991 371.13L644.222 348.367L656.051 344.33L628.705 264.211L616.876 268.249L609.167 245.665ZM689.809 333.008C698.054 330.193 703.137 326.324 705.058 321.399C707.058 316.314 706.651 309.649 703.837 301.404L692.091 266.991C689.644 259.821 686.115 254.955 681.505 252.393C677.014 249.79 670.647 249.895 662.402 252.71L652.365 256.135L679.772 336.433L689.809 333.008Z" fill="white"/>
<path d="M85.3185 406.819L106.332 397.03L127.541 442.56L163.518 425.8L142.31 380.271L163.323 370.482L215.232 481.918L194.219 491.707L172.862 445.859L136.884 462.618L158.241 508.466L137.227 518.254L85.3185 406.819Z" fill="white"/>
<path d="M288.484 503.097L247.293 496.004L236.939 520.952L213.055 516.839L262.818 400.666L305.74 408.057L313.782 534.183L289.899 530.071L288.484 503.097ZM255.894 475.032L287.22 480.426L283.87 416.052L280.755 415.516L255.894 475.032Z" fill="white"/>
<path d="M407.791 454.445C402.806 463.679 395.793 470.19 386.751 473.979C377.82 477.802 367.434 477.856 355.593 474.139C349.45 472.211 343.995 469.456 339.229 465.874C334.575 462.328 330.854 458.153 328.066 453.352C325.278 448.55 323.591 443.173 323.004 437.222C322.418 431.271 323.177 424.944 325.28 418.241L325.911 416.231C328.015 409.528 331.025 403.847 334.942 399.186C338.859 394.525 343.368 390.91 348.47 388.339C353.683 385.803 359.231 384.353 365.112 383.99C371.105 383.662 377.118 384.445 383.15 386.338C394.767 389.984 403.204 395.945 408.46 404.221C413.828 412.532 415.918 421.901 414.732 432.327L392.272 431.168C393.144 426.043 392.354 421.132 389.901 416.435C387.449 411.739 382.983 408.374 376.504 406.34C373.488 405.394 370.464 405.058 367.433 405.334C364.401 405.609 361.547 406.493 358.87 407.984C356.228 409.364 353.82 411.369 351.644 413.999C349.616 416.553 348.023 419.673 346.866 423.36L346.55 424.365C345.394 428.051 344.918 431.522 345.123 434.777C345.476 437.955 346.359 440.809 347.774 443.339C349.189 445.869 351.079 448.058 353.444 449.905C355.845 451.64 358.553 452.981 361.569 453.927C368.048 455.961 373.471 455.883 377.839 453.696C382.319 451.543 385.92 447.888 388.643 442.73L407.791 454.445Z" fill="white"/>
<path d="M463.554 510.043L464.602 519.723L474.282 518.675L473.234 508.995L463.554 510.043ZM442.2 512.355L432.521 513.403L433.569 523.082L443.248 522.035L442.2 512.355ZM429.94 399.113L428.892 389.434L419.213 390.482L420.26 400.161L429.94 399.113ZM451.294 396.801L460.973 395.753L459.925 386.074L450.246 387.122L451.294 396.801ZM456.321 443.23L446.641 444.278L447.689 453.958L457.369 452.91L456.321 443.23ZM461.012 442.723L462.06 452.402L467.337 451.831L469.716 447.086L461.012 442.723ZM485.914 393.053L484.866 383.374L479.589 383.945L477.21 388.69L485.914 393.053ZM510.018 390.443L519.697 389.395L518.649 379.716L508.97 380.764L510.018 390.443ZM510.123 391.414L518.826 395.779L520.111 393.216L519.803 390.366L510.123 391.414ZM481.047 449.392L472.345 445.027L471.059 447.59L471.368 450.44L481.047 449.392ZM481.363 452.304L471.683 453.351L472.006 456.333L473.95 458.616L481.363 452.304ZM524.115 502.504L533.794 501.457L533.471 498.475L531.527 496.192L524.115 502.504ZM524.22 503.475L525.268 513.155L534.947 512.107L533.899 502.427L524.22 503.475ZM499.145 506.19L491.667 512.425L495.007 516.431L500.193 515.869L499.145 506.19ZM463.219 463.106L470.697 456.871L467.356 452.865L462.171 453.427L463.219 463.106ZM458.528 463.614L457.48 453.935L447.8 454.983L448.848 464.662L458.528 463.614ZM462.506 500.364L441.152 502.676L443.248 522.035L464.602 519.723L462.506 500.364ZM451.88 511.307L439.619 398.065L420.26 400.161L432.521 513.403L451.88 511.307ZM430.988 408.793L452.342 406.481L450.246 387.122L428.892 389.434L430.988 408.793ZM441.615 397.849L446.641 444.278L466 442.183L460.973 395.753L441.615 397.849ZM457.369 452.91L462.06 452.402L459.964 433.043L455.273 433.551L457.369 452.91ZM469.716 447.086L494.617 397.416L477.21 388.69L452.309 438.359L469.716 447.086ZM486.962 402.732L511.066 400.123L508.97 380.764L484.866 383.374L486.962 402.732ZM500.339 391.491L500.444 392.462L519.803 390.366L519.697 389.395L500.339 391.491ZM501.42 387.05L472.345 445.027L489.75 453.756L518.826 395.779L501.42 387.05ZM471.368 450.44L471.683 453.351L491.042 451.256L490.727 448.344L471.368 450.44ZM473.95 458.616L516.702 508.817L531.527 496.192L488.775 445.991L473.95 458.616ZM514.435 503.552L514.54 504.523L533.899 502.427L533.794 501.457L514.435 503.552ZM523.172 493.796L498.097 496.511L500.193 515.869L525.268 513.155L523.172 493.796ZM506.622 499.955L470.697 456.871L455.742 469.341L491.667 512.425L506.622 499.955ZM462.171 453.427L457.48 453.935L459.576 473.293L464.267 472.785L462.171 453.427ZM448.848 464.662L453.875 511.091L473.234 508.995L468.207 462.566L448.848 464.662Z" fill="white"/>
<path d="M929.772 527.272C930.618 535.089 930.045 542.168 928.052 548.507C926.046 554.719 922.999 560.152 918.91 564.804C914.808 569.331 909.909 572.986 904.215 575.772C898.647 578.543 892.648 580.277 886.217 580.973C879.787 581.669 873.492 581.267 867.334 579.765C861.302 578.249 855.798 575.72 850.822 572.176C845.832 568.507 841.692 563.852 838.403 558.213C835.1 552.447 833.025 545.655 832.179 537.838L831.933 535.568C831.1 527.877 831.687 520.925 833.693 514.712C835.686 508.373 838.726 502.877 842.815 498.225C846.904 493.572 851.732 489.86 857.3 487.089C862.994 484.304 869.057 482.563 875.487 481.867C881.918 481.171 888.149 481.58 894.181 483.096C900.34 484.598 905.914 487.183 910.903 490.853C915.893 494.522 920.04 499.24 923.343 505.006C926.632 510.645 928.693 517.311 929.526 525.002L929.772 527.272ZM883.76 558.277C887.165 557.908 890.318 556.993 893.222 555.531C896.125 554.068 898.595 552.142 900.633 549.753C902.67 547.364 904.156 544.588 905.089 541.425C906.135 538.123 906.446 534.517 906.023 530.608L905.613 526.826C905.19 522.917 904.121 519.525 902.407 516.649C900.804 513.633 898.752 511.176 896.251 509.278C893.749 507.38 890.924 506.028 887.775 505.221C884.626 504.414 881.349 504.194 877.945 504.563C874.54 504.932 871.386 505.847 868.483 507.31C865.58 508.772 863.109 510.698 861.072 513.087C859.034 515.476 857.493 518.322 856.447 521.624C855.514 524.787 855.259 528.323 855.682 532.232L856.091 536.014C856.515 539.923 857.527 543.385 859.129 546.401C860.844 549.277 862.952 551.664 865.454 553.562C867.956 555.46 870.781 556.812 873.93 557.619C877.079 558.426 880.356 558.646 883.76 558.277Z" fill="white"/>
<path d="M963.574 712.432L966.979 712.064L953.996 592.153L978.962 589.45L993.296 721.844L944.499 727.127L916.008 608.895L912.603 609.263L925.586 729.174L900.62 731.877L886.286 599.483L935.083 594.2L963.574 712.432Z" fill="white"/>
<path d="M809.257 405.135L820.848 425.21L777.35 450.324L797.195 484.696L840.693 459.583L852.283 479.659L745.82 541.125L734.23 521.049L778.032 495.76L758.187 461.388L714.385 486.677L702.794 466.601L809.257 405.135Z" fill="white"/>
<path d="M602.664 456.414L604.542 457.447L612.28 450.604L625.057 465.825L615.512 473.924C611.3 477.442 606.691 479.472 601.686 480.014C597.263 480.493 593.173 479.699 589.417 477.633C585.66 475.566 583.077 472.372 581.667 468.05L578.524 468.39C577.69 470.482 576.67 472.477 575.462 474.374C574.242 476.155 572.653 477.799 570.697 479.306C568.844 480.684 566.559 481.874 563.841 482.875C561.252 483.979 558.095 484.733 554.37 485.137C549.831 485.628 545.546 485.209 541.516 483.879C537.473 482.432 533.826 480.295 530.576 477.467C527.43 474.511 524.809 470.967 522.713 466.837C520.617 462.707 519.292 458.081 518.737 452.959C517.893 445.16 518.153 437.772 519.517 430.794C520.881 423.816 523.271 417.61 526.687 412.177C530.09 406.627 534.486 402.088 539.874 398.561C545.379 395.02 551.74 392.86 558.957 392.078C565.358 391.385 570.56 392.118 574.562 394.275C578.564 396.433 581.432 399.537 583.166 403.589L586.309 403.249L587.506 391.46L609.505 389.079L602.664 456.414ZM560.657 463.259C564.847 462.805 568.484 461.587 571.567 459.604C574.637 457.506 577.068 454.946 578.861 451.926C580.77 448.893 582.105 445.451 582.866 441.6C583.614 437.633 583.761 433.554 583.307 429.364C582.715 423.893 580.665 419.64 577.157 416.605C573.636 413.453 569.256 412.161 564.018 412.728C559.828 413.181 556.198 414.458 553.128 416.557C550.045 418.539 547.549 421.047 545.64 424.08C543.731 427.113 542.402 430.613 541.654 434.58C540.893 438.431 540.74 442.451 541.194 446.642C541.723 451.53 543.586 455.686 546.783 459.108C550.096 462.518 554.721 463.901 560.657 463.259Z" fill="white"/>
<path d="M655.429 434.61L627.698 430.166L631.507 406.396L664.388 411.666L680.42 369.944L705.378 373.944L689.346 415.665L723.416 421.125L719.607 444.894L680.387 438.609L661.137 487.738L662.896 489.442L692.359 475.473L701.854 496.092L670.021 510.901C664.453 513.53 658.83 514.39 653.152 513.48C650.246 513.014 647.558 512.042 645.086 510.562C642.593 509.215 640.505 507.458 638.82 505.292C637.135 503.125 635.911 500.627 635.145 497.795C634.38 494.963 634.262 491.897 634.791 488.596C634.96 487.539 635.174 486.625 635.434 485.854C635.714 484.951 636.102 483.794 636.599 482.384L655.429 434.61Z" fill="white"/>
<path d="M999.984 306.129L992.678 367.017C992.678 367.017 985.371 357.275 914.742 403.549C914.742 403.549 834.053 396.243 831.764 403.549C829.475 410.856 812.45 381.63 812.45 381.63L819.757 369.452L810.015 354.839L817.321 335.355C817.321 335.355 791.797 323.178 794.817 306.129L741.821 308.564C741.821 308.564 693.11 323.178 690.675 315.871L680.933 298.822L741.821 276.903C741.821 276.903 831.934 274.613 840.459 269.669L870.903 267.161L851.418 218.451L870.902 186.789L887.951 194.096L890.387 235.499L909.871 262.29L999.984 306.129Z" fill="#FF5F39"/>
<path d="M53.8337 724.336C53.8337 724.336 255.707 739.877 273.455 757.625L277.89 717.694L233.521 686.634L198.027 695.506L195.808 688.85C195.808 688.85 273.446 584.591 302.284 569.064L300.064 549.098L284.535 542.442L204.677 613.426L280.098 533.568L282.315 518.04L269.958 508.212C269.958 508.212 211.329 544.656 171.4 593.459L226.856 515.818L224.636 495.853L211.325 486.978L111.504 591.237L115.937 529.122L127.027 486.974L107.06 471.444C107.06 471.444 60.4839 637.82 44.9559 648.911L53.8337 724.336Z" fill="#2F56DF"/>
<path d="M405.004 613.656C405.004 613.656 434.068 550.293 441.918 546.673L429.541 540.477L414.219 551.12L412.864 563.65L410.443 563.573C410.443 563.573 386.015 526.072 384.42 514.904L377.715 513.247L373.722 517.473L387.135 551.728L370.319 517.85L365.563 515.295L360.918 518.106C360.918 518.106 365.717 541.396 376.713 560.112L358.24 532.94L351.534 531.284L347.088 534.526L368.885 579.204L349.349 570.367L337.057 561.768L329.661 566.372C329.661 566.372 377.855 601.239 379.592 607.593L405.011 613.716L405.004 613.656Z" fill="#FFBA00"/>
<path d="M608.785 629.953C608.785 629.953 579.721 566.59 571.871 562.97L584.248 556.774L599.57 567.417L600.925 579.946L603.346 579.87C603.346 579.87 627.774 542.369 629.369 531.201L636.074 529.544L640.067 533.77L626.654 568.025L643.47 534.147L648.226 531.592L652.871 534.403C652.871 534.403 648.072 557.693 637.077 576.409L655.549 549.237L662.255 547.58L666.701 550.823L644.904 595.5L664.44 586.664L676.732 578.065L684.128 582.669C684.128 582.669 635.934 617.536 634.197 623.89L608.778 630.013L608.785 629.953Z" fill="#FFBA00"/>
<path d="M653.109 737.462C632.211 686.167 636.01 619.674 636.01 619.674L594.215 594.977C594.215 594.977 634.111 781.157 626.511 796.355C626.511 796.355 590.415 593.077 575.217 591.177C561.728 589.486 534.77 584.813 528.9 583.787C530.173 580.842 531.179 577.631 531.901 574.231C535.568 556.563 529.47 540.357 518.28 538.039C507.09 535.722 495.045 548.165 491.379 565.834C490.087 572.084 490.03 578.144 490.961 583.483C485.679 582.552 449.412 576.282 444.131 579.797C438.431 583.597 356.74 765.978 345.341 760.278C333.942 754.579 419.433 583.578 419.433 583.578L377.638 594.977L314.944 678.568L292.146 746.961C292.146 746.961 295.946 838.151 301.645 838.151C307.345 838.151 335.728 855.249 362.382 838.151C362.382 838.151 430.832 718.464 440.331 665.269C440.331 665.269 438.431 722.263 419.433 754.56C400.435 786.856 339.642 954.039 339.642 954.039L301.645 963.538L292.146 985.652H411.872C411.872 985.652 486.04 822.269 489.783 777.015C493.525 731.762 516.323 691.866 516.323 691.866C516.323 691.866 505.114 757.675 498.37 777.015C498.37 777.015 446.182 967.888 443.257 985.652H631.489V960.593L539.102 931.222C539.102 931.222 535.302 737.443 550.5 718.445C550.5 718.445 558.1 703.246 554.3 819.134L559.999 912.224C559.999 912.224 626.492 955.92 647.39 916.024C668.288 876.128 673.987 788.737 653.09 737.443L653.109 737.462Z" fill="#FFBA00"/>
<path d="M225.255 958.828L228.378 958.49L239.89 845.962L261.75 843.595L249.048 967.837L206.37 972.458L202.615 861.582L199.493 861.92L187.98 974.449L166.294 976.796L178.822 852.574L221.5 847.953L225.255 958.828Z" fill="white"/>
<path d="M78.7052 932.391H107.547L107.547 888.441H80.7653L80.7653 867.84H129.179V932.391H153.9V952.992H78.7052V932.391ZM134.501 842.603C134.501 844.892 134.043 847.067 133.127 849.127C132.326 851.072 131.182 852.789 129.694 854.277C128.206 855.651 126.432 856.795 124.372 857.711C122.426 858.512 120.366 858.912 118.191 858.912C115.902 858.912 113.785 858.512 111.839 857.711C109.893 856.795 108.177 855.651 106.689 854.277C105.201 852.789 103.999 851.072 103.084 849.127C102.282 847.067 101.882 844.892 101.882 842.603C101.882 840.314 102.282 838.197 103.084 836.251C103.999 834.191 105.201 832.474 106.689 831.1C108.177 829.613 109.893 828.468 111.839 827.667C113.785 826.751 115.902 826.293 118.191 826.293C120.366 826.293 122.426 826.751 124.372 827.667C126.432 828.468 128.206 829.613 129.694 831.1C131.182 832.474 132.326 834.191 133.127 836.251C134.043 838.197 134.501 840.314 134.501 842.603Z" fill="white"/>
<path d="M773.73 837.389L756.869 834.292L774.073 740.619L790.934 743.715L783.954 781.72L786.363 782.162C788.796 778.459 791.859 775.84 795.553 774.305C799.263 772.681 803.527 772.311 808.345 773.196C811.646 773.802 814.581 774.895 817.15 776.473C819.719 778.052 821.832 780.1 823.491 782.618C825.15 785.136 826.248 788.196 826.785 791.8C827.338 795.313 827.197 799.345 826.362 803.895L818.694 845.647L801.833 842.55L808.763 804.813C809.632 800.085 809.152 796.169 807.324 793.067C805.601 789.892 802.599 787.911 798.317 787.124C793.321 786.207 789.263 787.214 786.142 790.145C783.127 793.004 781.104 797.243 780.071 802.864L773.73 837.389Z" fill="white"/>
<path d="M877.496 839.365L845.573 841.996L842.671 862.492L824.161 864.018L838.822 768.28L872.086 765.538L902.225 857.583L883.715 859.109L877.496 839.365ZM847.936 824.786L872.213 822.785L857.391 775.662L854.976 775.861L847.936 824.786Z" fill="white"/>
<path d="M819.292 938.931C817.103 942.958 814.315 945.71 810.928 947.188C807.55 948.576 803.718 949.065 799.431 948.653C795.412 948.268 791.689 947.144 788.262 945.283C784.924 943.431 782.057 940.902 779.66 937.698C777.264 934.494 775.463 930.715 774.258 926.363C773.142 922.02 772.842 917.169 773.356 911.81L773.561 909.667C774.067 904.397 775.28 899.736 777.201 895.684C779.122 891.632 781.519 888.257 784.392 885.558C787.265 882.859 790.471 880.913 794.011 879.72C797.648 878.447 801.432 877.999 805.362 878.376C810.095 878.83 813.814 879.998 816.518 881.88C819.311 883.77 821.393 886.493 822.765 890.05L825.176 890.282L825.947 882.243L842.827 883.863L838.38 930.217C838.123 932.896 839.201 934.351 841.612 934.583L844.158 934.827L842.615 950.903L831.094 949.798C828.057 949.507 825.642 948.374 823.848 946.399C822.144 944.433 821.429 942.021 821.703 939.163L819.292 938.931ZM804.724 932.937C809.636 933.408 813.72 932.177 816.976 929.245C820.241 926.223 822.143 921.899 822.683 916.272L822.837 914.664C823.377 909.037 822.327 904.475 819.688 900.977C817.058 897.39 813.287 895.36 808.374 894.889C803.462 894.418 799.374 895.693 796.109 898.715C792.854 901.647 790.956 905.927 790.416 911.554L790.262 913.162C789.722 918.788 790.767 923.395 793.397 926.983C796.036 930.481 799.812 932.465 804.724 932.937Z" fill="white"/>
<path d="M888.693 793.225L947.408 770.425L953.546 786.233L932.469 794.418L954.294 850.624L975.371 842.439L981.509 858.247L922.794 881.046L916.656 865.238L937.733 857.054L915.908 800.848L894.831 809.032L888.693 793.225Z" fill="white"/>
<path d="M755.308 869.785L771.675 876.694L741.633 947.865L781.062 964.509L774.467 980.132L718.671 956.579L755.308 869.785Z" fill="white"/>
<path d="M869.699 971.305L852.819 969.686L859.194 903.236L876.074 904.856L875.123 914.77L877.535 915.001C879.413 911.395 882.147 908.728 885.738 907C889.329 905.271 893.402 904.625 897.957 905.062C901.173 905.371 904.113 906.194 906.779 907.531C909.543 908.788 911.894 910.591 913.832 912.94C915.77 915.289 917.161 918.172 918.005 921.588C918.938 925.012 919.186 929.002 918.749 933.557L914.713 975.624L897.833 974.004L901.458 936.225C901.912 931.491 901.106 927.673 899.041 924.771C897.074 921.788 893.947 920.091 889.66 919.679C884.658 919.2 880.744 920.537 877.918 923.691C875.189 926.764 873.555 931.114 873.015 936.741L869.699 971.305Z" fill="white"/>
<path d="M931.736 891.53L965.764 894.795C977.375 895.909 985.733 899.46 990.837 905.448C995.949 911.346 997.962 919.967 996.873 931.31L994.251 958.64C993.163 969.983 989.544 978.108 983.395 983.017C977.254 987.836 968.378 989.688 956.767 988.574L922.739 985.31L924.371 968.295L933.213 969.144L938.958 909.259L930.116 908.41L931.736 891.53ZM958.387 971.694C964.55 972.285 968.974 971.267 971.659 968.641C974.443 965.933 976.13 961.498 976.722 955.336L979.189 929.613C979.703 924.254 978.843 920.071 976.608 917.062C974.462 914.062 970.308 912.266 964.145 911.675L956.643 910.955L950.885 970.974L958.387 971.694Z" fill="white"/>
<path d="M683.179 768.476L754.401 767.565L754.629 785.371L728.344 785.707L729.382 866.82L710.729 867.059L709.691 785.945L683.407 786.282L683.179 768.476Z" fill="white"/>
<path d="M732.516 237.758H748.05V253.292H732.516V237.758Z" fill="#FFEA6B"/>
<path d="M783.977 237.758H799.511L783.977 253.292V237.758Z" fill="#FFEA6B"/>
<path d="M783.977 237.758H799.511L783.977 253.292V237.758Z" fill="#FFEA6B"/>
<path d="M739.951 229.665C738.402 229.665 737.072 229.325 735.961 228.645C734.856 227.965 734.004 227.025 733.405 225.827C732.812 224.621 732.516 223.234 732.516 221.665C732.516 220.089 732.819 218.698 733.425 217.493C734.031 216.281 734.886 215.338 735.991 214.665C737.102 213.984 738.415 213.644 739.931 213.644C741.19 213.644 742.305 213.877 743.275 214.341C744.251 214.799 745.029 215.449 745.608 216.291C746.188 217.126 746.518 218.102 746.598 219.22H743.103C742.962 218.473 742.625 217.85 742.093 217.352C741.567 216.846 740.864 216.594 739.981 216.594C739.234 216.594 738.577 216.796 738.011 217.2C737.446 217.597 737.004 218.17 736.688 218.917C736.378 219.665 736.223 220.56 736.223 221.604C736.223 222.662 736.378 223.571 736.688 224.332C736.998 225.086 737.432 225.668 737.991 226.079C738.557 226.483 739.22 226.685 739.981 226.685C740.52 226.685 741.002 226.584 741.426 226.382C741.857 226.174 742.217 225.874 742.507 225.483C742.797 225.093 742.995 224.618 743.103 224.059H746.598C746.511 225.157 746.188 226.13 745.629 226.978C745.07 227.82 744.309 228.48 743.345 228.958C742.382 229.43 741.251 229.665 739.951 229.665Z" fill="#FFEA6B"/>
<path d="M749.032 229.362V213.846H752.578V216.432H752.74C753.023 215.537 753.508 214.846 754.195 214.361C754.888 213.87 755.68 213.624 756.569 213.624C756.771 213.624 756.996 213.634 757.246 213.654C757.502 213.668 757.714 213.691 757.882 213.725V217.089C757.727 217.035 757.481 216.988 757.145 216.947C756.815 216.9 756.495 216.877 756.185 216.877C755.518 216.877 754.919 217.022 754.387 217.311C753.861 217.594 753.447 217.988 753.144 218.493C752.841 218.998 752.689 219.581 752.689 220.241V229.362H749.032Z" fill="#FFEA6B"/>
<path d="M765.973 229.665C764.418 229.665 763.074 229.342 761.943 228.696C760.818 228.042 759.952 227.12 759.346 225.928C758.74 224.729 758.437 223.318 758.437 221.695C758.437 220.099 758.74 218.698 759.346 217.493C759.959 216.281 760.814 215.338 761.912 214.665C763.01 213.984 764.3 213.644 765.781 213.644C766.738 213.644 767.64 213.799 768.489 214.109C769.344 214.412 770.099 214.883 770.752 215.523C771.412 216.163 771.93 216.978 772.308 217.968C772.685 218.951 772.873 220.123 772.873 221.483V222.604H760.154V220.14H769.368C769.361 219.439 769.21 218.816 768.913 218.271C768.617 217.719 768.203 217.284 767.671 216.968C767.145 216.651 766.532 216.493 765.832 216.493C765.084 216.493 764.428 216.675 763.862 217.038C763.296 217.395 762.855 217.867 762.539 218.453C762.229 219.032 762.07 219.668 762.064 220.362V222.513C762.064 223.416 762.229 224.19 762.559 224.837C762.889 225.477 763.35 225.968 763.943 226.312C764.535 226.648 765.229 226.817 766.024 226.817C766.556 226.817 767.038 226.743 767.469 226.594C767.9 226.44 768.273 226.214 768.59 225.918C768.906 225.621 769.146 225.254 769.307 224.817L772.722 225.2C772.506 226.103 772.095 226.891 771.489 227.564C770.89 228.231 770.122 228.749 769.186 229.12C768.25 229.483 767.179 229.665 765.973 229.665Z" fill="#FFEA6B"/>
<path d="M779.863 229.675C778.88 229.675 777.995 229.5 777.207 229.15C776.425 228.793 775.806 228.268 775.348 227.574C774.896 226.881 774.671 226.025 774.671 225.008C774.671 224.133 774.832 223.409 775.156 222.837C775.479 222.264 775.92 221.806 776.479 221.463C777.038 221.119 777.668 220.86 778.368 220.685C779.076 220.503 779.806 220.372 780.561 220.291C781.47 220.197 782.207 220.113 782.773 220.039C783.339 219.958 783.75 219.837 784.005 219.675C784.268 219.507 784.399 219.247 784.399 218.897V218.836C784.399 218.075 784.174 217.486 783.723 217.069C783.271 216.651 782.621 216.442 781.773 216.442C780.877 216.442 780.167 216.638 779.641 217.028C779.123 217.419 778.772 217.88 778.591 218.412L775.176 217.927C775.445 216.984 775.89 216.197 776.509 215.564C777.129 214.924 777.887 214.446 778.783 214.129C779.678 213.806 780.668 213.644 781.753 213.644C782.5 213.644 783.244 213.732 783.985 213.907C784.726 214.082 785.403 214.372 786.016 214.776C786.629 215.173 787.12 215.715 787.491 216.402C787.868 217.089 788.057 217.948 788.057 218.978V229.362H784.541V227.231H784.42C784.197 227.662 783.884 228.066 783.48 228.443C783.083 228.813 782.581 229.113 781.975 229.342C781.375 229.564 780.672 229.675 779.863 229.675ZM780.813 226.988C781.547 226.988 782.184 226.844 782.722 226.554C783.261 226.258 783.675 225.867 783.965 225.382C784.261 224.897 784.41 224.369 784.41 223.796V221.968C784.295 222.062 784.1 222.15 783.824 222.231C783.554 222.311 783.251 222.382 782.914 222.443C782.578 222.503 782.244 222.557 781.914 222.604C781.584 222.651 781.298 222.692 781.056 222.726C780.51 222.8 780.022 222.921 779.591 223.089C779.16 223.258 778.82 223.493 778.57 223.796C778.321 224.093 778.197 224.476 778.197 224.948C778.197 225.621 778.442 226.13 778.934 226.473C779.426 226.817 780.052 226.988 780.813 226.988Z" fill="#FFEA6B"/>
<path d="M798.913 213.846V216.675H789.993V213.846H798.913ZM792.195 210.129H795.852V224.695C795.852 225.187 795.926 225.564 796.075 225.827C796.23 226.083 796.432 226.258 796.681 226.352C796.93 226.446 797.206 226.493 797.509 226.493C797.738 226.493 797.947 226.477 798.136 226.443C798.331 226.409 798.479 226.379 798.58 226.352L799.196 229.211C799.001 229.278 798.721 229.352 798.358 229.433C798.001 229.514 797.563 229.561 797.044 229.574C796.129 229.601 795.303 229.463 794.569 229.16C793.835 228.85 793.253 228.372 792.822 227.726C792.397 227.079 792.189 226.271 792.195 225.301V210.129Z" fill="#FFEA6B"/>
<path d="M818.528 229.362V213.846H822.074V216.432H822.236C822.519 215.537 823.004 214.846 823.69 214.361C824.384 213.87 825.176 213.624 826.065 213.624C826.267 213.624 826.492 213.634 826.741 213.654C826.997 213.668 827.21 213.691 827.378 213.725V217.089C827.223 217.035 826.977 216.988 826.64 216.947C826.31 216.9 825.99 216.877 825.681 216.877C825.014 216.877 824.415 217.022 823.882 217.311C823.357 217.594 822.943 217.988 822.64 218.493C822.337 218.998 822.185 219.581 822.185 220.241V229.362H818.528Z" fill="#FFEA6B"/>
<path d="M841.503 217.948L838.169 218.311C838.075 217.974 837.91 217.658 837.674 217.362C837.445 217.065 837.135 216.826 836.745 216.644C836.354 216.463 835.876 216.372 835.31 216.372C834.549 216.372 833.909 216.537 833.391 216.867C832.879 217.197 832.626 217.624 832.633 218.15C832.626 218.601 832.791 218.968 833.128 219.251C833.471 219.533 834.037 219.766 834.825 219.948L837.472 220.513C838.94 220.83 840.031 221.332 840.745 222.018C841.466 222.705 841.83 223.604 841.836 224.716C841.83 225.692 841.543 226.554 840.978 227.302C840.419 228.042 839.641 228.621 838.644 229.039C837.647 229.457 836.502 229.665 835.209 229.665C833.31 229.665 831.781 229.268 830.623 228.473C829.464 227.672 828.774 226.557 828.552 225.13L832.118 224.786C832.279 225.487 832.623 226.015 833.148 226.372C833.673 226.729 834.357 226.908 835.199 226.908C836.068 226.908 836.765 226.729 837.29 226.372C837.822 226.015 838.088 225.574 838.088 225.049C838.088 224.604 837.917 224.237 837.573 223.948C837.236 223.658 836.711 223.436 835.997 223.281L833.35 222.726C831.862 222.416 830.761 221.894 830.047 221.16C829.333 220.419 828.979 219.483 828.986 218.352C828.979 217.395 829.239 216.567 829.764 215.867C830.296 215.159 831.033 214.614 831.976 214.23C832.926 213.84 834.02 213.644 835.26 213.644C837.078 213.644 838.509 214.031 839.553 214.806C840.604 215.58 841.254 216.628 841.503 217.948Z" fill="#FFEA6B"/>
<path d="M757.966 259.421C756.653 259.421 755.525 259.242 754.582 258.885C753.639 258.535 752.881 258.064 752.309 257.471C751.736 256.878 751.339 256.222 751.117 255.501L754.41 254.703C754.558 255.006 754.774 255.306 755.057 255.602C755.339 255.905 755.72 256.155 756.198 256.35C756.683 256.552 757.293 256.653 758.027 256.653C759.064 256.653 759.922 256.4 760.603 255.895C761.283 255.397 761.623 254.575 761.623 253.43V250.491H761.441C761.253 250.868 760.977 251.255 760.613 251.653C760.256 252.05 759.781 252.383 759.188 252.653C758.602 252.922 757.865 253.057 756.976 253.057C755.784 253.057 754.703 252.777 753.733 252.218C752.77 251.653 752.002 250.811 751.43 249.693C750.864 248.568 750.581 247.161 750.581 245.47C750.581 243.767 750.864 242.329 751.43 241.157C752.002 239.979 752.773 239.086 753.743 238.48C754.713 237.867 755.794 237.561 756.986 237.561C757.895 237.561 758.643 237.716 759.229 238.026C759.821 238.329 760.293 238.696 760.643 239.127C760.993 239.551 761.259 239.952 761.441 240.329H761.643V237.763H765.25V253.532C765.25 254.858 764.933 255.956 764.3 256.825C763.667 257.693 762.802 258.343 761.704 258.774C760.606 259.205 759.36 259.421 757.966 259.421ZM757.996 250.188C758.771 250.188 759.431 249.999 759.976 249.622C760.522 249.245 760.936 248.703 761.219 247.996C761.502 247.289 761.643 246.44 761.643 245.45C761.643 244.474 761.502 243.619 761.219 242.884C760.943 242.15 760.532 241.581 759.986 241.177C759.448 240.767 758.784 240.561 757.996 240.561C757.181 240.561 756.501 240.773 755.956 241.198C755.41 241.622 754.999 242.204 754.723 242.945C754.447 243.679 754.309 244.514 754.309 245.45C754.309 246.4 754.447 247.231 754.723 247.945C755.006 248.652 755.42 249.205 755.966 249.602C756.518 249.993 757.195 250.188 757.996 250.188Z" fill="#FFEA6B"/>
<path d="M772.894 253.592C771.911 253.592 771.025 253.417 770.237 253.067C769.456 252.71 768.836 252.185 768.378 251.491C767.927 250.797 767.701 249.942 767.701 248.925C767.701 248.05 767.863 247.326 768.186 246.753C768.51 246.181 768.951 245.723 769.51 245.38C770.069 245.036 770.699 244.777 771.399 244.602C772.106 244.42 772.837 244.289 773.591 244.208C774.5 244.113 775.238 244.029 775.804 243.955C776.369 243.874 776.78 243.753 777.036 243.592C777.299 243.423 777.43 243.164 777.43 242.814V242.753C777.43 241.992 777.204 241.403 776.753 240.985C776.302 240.568 775.652 240.359 774.803 240.359C773.908 240.359 773.197 240.554 772.672 240.945C772.153 241.336 771.803 241.797 771.621 242.329L768.207 241.844C768.476 240.901 768.921 240.113 769.54 239.48C770.16 238.84 770.917 238.362 771.813 238.046C772.709 237.723 773.699 237.561 774.783 237.561C775.531 237.561 776.275 237.648 777.016 237.824C777.757 237.999 778.434 238.288 779.046 238.692C779.659 239.09 780.151 239.632 780.521 240.319C780.899 241.006 781.087 241.864 781.087 242.895V253.279H777.572V251.148H777.45C777.228 251.579 776.915 251.983 776.511 252.36C776.113 252.73 775.612 253.03 775.006 253.259C774.406 253.481 773.702 253.592 772.894 253.592ZM773.844 250.905C774.578 250.905 775.214 250.76 775.753 250.471C776.292 250.174 776.706 249.784 776.996 249.299C777.292 248.814 777.44 248.285 777.44 247.713V245.885C777.326 245.979 777.13 246.066 776.854 246.147C776.585 246.228 776.282 246.299 775.945 246.359C775.608 246.42 775.275 246.474 774.945 246.521C774.615 246.568 774.329 246.609 774.086 246.642C773.541 246.716 773.052 246.838 772.621 247.006C772.19 247.174 771.85 247.41 771.601 247.713C771.352 248.009 771.227 248.393 771.227 248.865C771.227 249.538 771.473 250.046 771.965 250.39C772.456 250.733 773.083 250.905 773.844 250.905Z" fill="#FFEA6B"/>
<path d="M809.784 237.763V240.591H800.864V237.763H809.784ZM803.066 234.046H806.723V248.612C806.723 249.104 806.797 249.481 806.946 249.743C807.1 249.999 807.303 250.174 807.552 250.269C807.801 250.363 808.077 250.41 808.38 250.41C808.609 250.41 808.818 250.393 809.006 250.36C809.202 250.326 809.35 250.296 809.451 250.269L810.067 253.127C809.872 253.195 809.592 253.269 809.229 253.35C808.872 253.43 808.434 253.478 807.915 253.491C806.999 253.518 806.174 253.38 805.44 253.077C804.706 252.767 804.124 252.289 803.693 251.643C803.268 250.996 803.06 250.188 803.066 249.218V234.046Z" fill="#FFEA6B"/>
<path d="M819.144 253.582C817.588 253.582 816.244 253.259 815.113 252.612C813.988 251.959 813.122 251.036 812.516 249.844C811.91 248.646 811.607 247.235 811.607 245.612C811.607 244.016 811.91 242.615 812.516 241.41C813.129 240.197 813.985 239.255 815.082 238.581C816.18 237.901 817.47 237.561 818.952 237.561C819.908 237.561 820.81 237.716 821.659 238.026C822.514 238.329 823.269 238.8 823.922 239.44C824.582 240.08 825.101 240.894 825.478 241.884C825.855 242.868 826.043 244.039 826.043 245.4V246.521H813.325V244.056H822.538C822.531 243.356 822.38 242.733 822.083 242.187C821.787 241.635 821.373 241.201 820.841 240.884C820.315 240.568 819.703 240.41 819.002 240.41C818.255 240.41 817.598 240.591 817.032 240.955C816.466 241.312 816.025 241.783 815.709 242.369C815.399 242.948 815.241 243.585 815.234 244.278V246.43C815.234 247.333 815.399 248.107 815.729 248.753C816.059 249.393 816.52 249.885 817.113 250.228C817.706 250.565 818.399 250.733 819.194 250.733C819.726 250.733 820.208 250.659 820.639 250.511C821.07 250.356 821.443 250.131 821.76 249.834C822.077 249.538 822.316 249.171 822.477 248.733L825.892 249.117C825.676 250.02 825.266 250.807 824.659 251.481C824.06 252.148 823.292 252.666 822.356 253.037C821.42 253.4 820.349 253.582 819.144 253.582Z" fill="#FFEA6B"/>
<path d="M757.965 259.422C756.652 259.422 755.524 259.244 754.581 258.887C753.638 258.536 752.88 258.065 752.308 257.472C751.735 256.88 751.338 256.223 751.116 255.503L754.409 254.705C754.557 255.008 754.773 255.307 755.055 255.604C755.338 255.907 755.719 256.156 756.197 256.351C756.682 256.553 757.291 256.654 758.026 256.654C759.063 256.654 759.921 256.402 760.602 255.897C761.282 255.398 761.622 254.577 761.622 253.432V250.492H761.44C761.252 250.869 760.975 251.257 760.612 251.654C760.255 252.051 759.78 252.385 759.187 252.654C758.601 252.923 757.864 253.058 756.975 253.058C755.783 253.058 754.702 252.779 753.732 252.22C752.769 251.654 752.001 250.812 751.429 249.694C750.863 248.57 750.58 247.162 750.58 245.472C750.58 243.768 750.863 242.33 751.429 241.158C752.001 239.98 752.772 239.088 753.742 238.481C754.712 237.869 755.793 237.562 756.985 237.562C757.894 237.562 758.642 237.717 759.228 238.027C759.82 238.33 760.292 238.697 760.642 239.128C760.992 239.552 761.258 239.953 761.44 240.33H761.642V237.764H765.249V253.533C765.249 254.859 764.932 255.957 764.299 256.826C763.666 257.695 762.801 258.344 761.703 258.775C760.605 259.206 759.359 259.422 757.965 259.422ZM757.995 250.189C758.77 250.189 759.43 250.001 759.975 249.623C760.521 249.246 760.935 248.704 761.218 247.997C761.501 247.29 761.642 246.441 761.642 245.452C761.642 244.475 761.501 243.62 761.218 242.886C760.942 242.152 760.531 241.583 759.985 241.179C759.447 240.768 758.783 240.562 757.995 240.562C757.18 240.562 756.5 240.775 755.955 241.199C755.409 241.623 754.998 242.206 754.722 242.946C754.446 243.68 754.308 244.515 754.308 245.452C754.308 246.401 754.446 247.233 754.722 247.947C755.005 248.654 755.419 249.206 755.965 249.603C756.517 249.994 757.194 250.189 757.995 250.189Z" fill="#FFEA6B"/>
<path d="M772.893 253.593C771.91 253.593 771.024 253.418 770.236 253.068C769.455 252.711 768.835 252.186 768.377 251.492C767.926 250.799 767.7 249.943 767.7 248.926C767.7 248.051 767.862 247.327 768.185 246.755C768.509 246.182 768.95 245.724 769.509 245.381C770.068 245.037 770.697 244.778 771.398 244.603C772.105 244.421 772.836 244.29 773.59 244.209C774.499 244.115 775.237 244.031 775.803 243.957C776.368 243.876 776.779 243.754 777.035 243.593C777.298 243.424 777.429 243.165 777.429 242.815V242.754C777.429 241.993 777.203 241.404 776.752 240.987C776.301 240.569 775.651 240.36 774.802 240.36C773.907 240.36 773.196 240.556 772.671 240.946C772.152 241.337 771.802 241.798 771.62 242.33L768.206 241.845C768.475 240.902 768.919 240.115 769.539 239.482C770.159 238.842 770.916 238.364 771.812 238.047C772.708 237.724 773.698 237.562 774.782 237.562C775.53 237.562 776.274 237.65 777.015 237.825C777.756 238 778.433 238.29 779.045 238.694C779.658 239.091 780.15 239.633 780.52 240.32C780.898 241.007 781.086 241.865 781.086 242.896V253.28H777.57V251.149H777.449C777.227 251.58 776.914 251.984 776.51 252.361C776.112 252.731 775.611 253.031 775.004 253.26C774.405 253.482 773.701 253.593 772.893 253.593ZM773.843 250.906C774.577 250.906 775.213 250.762 775.752 250.472C776.291 250.176 776.705 249.785 776.995 249.3C777.291 248.815 777.439 248.287 777.439 247.714V245.886C777.325 245.98 777.129 246.068 776.853 246.149C776.584 246.229 776.281 246.3 775.944 246.361C775.607 246.421 775.274 246.475 774.944 246.522C774.614 246.569 774.328 246.61 774.085 246.644C773.54 246.718 773.051 246.839 772.62 247.007C772.189 247.176 771.849 247.411 771.6 247.714C771.351 248.011 771.226 248.394 771.226 248.866C771.226 249.539 771.472 250.048 771.964 250.391C772.455 250.735 773.082 250.906 773.843 250.906Z" fill="#FFEA6B"/>
<path d="M809.783 237.764V240.593H800.863V237.764H809.783ZM803.065 234.047H806.722V248.613C806.722 249.105 806.796 249.482 806.945 249.745C807.099 250.001 807.301 250.176 807.551 250.27C807.8 250.364 808.076 250.411 808.379 250.411C808.608 250.411 808.817 250.395 809.005 250.361C809.201 250.327 809.349 250.297 809.45 250.27L810.066 253.129C809.871 253.196 809.591 253.27 809.228 253.351C808.871 253.432 808.433 253.479 807.914 253.492C806.998 253.519 806.173 253.381 805.439 253.078C804.705 252.768 804.123 252.29 803.692 251.644C803.267 250.997 803.058 250.189 803.065 249.219V234.047Z" fill="#FFEA6B"/>
<path d="M819.143 253.583C817.587 253.583 816.243 253.26 815.112 252.614C813.987 251.96 813.121 251.038 812.515 249.846C811.909 248.647 811.606 247.236 811.606 245.613C811.606 244.017 811.909 242.616 812.515 241.411C813.128 240.199 813.984 239.256 815.081 238.582C816.179 237.902 817.469 237.562 818.951 237.562C819.907 237.562 820.809 237.717 821.658 238.027C822.513 238.33 823.268 238.801 823.921 239.441C824.581 240.081 825.1 240.896 825.477 241.886C825.854 242.869 826.042 244.041 826.042 245.401V246.522H813.323V244.058H822.537C822.53 243.357 822.379 242.734 822.082 242.189C821.786 241.637 821.372 241.202 820.84 240.886C820.314 240.569 819.701 240.411 819.001 240.411C818.253 240.411 817.597 240.593 817.031 240.956C816.465 241.313 816.024 241.785 815.708 242.371C815.398 242.95 815.24 243.586 815.233 244.28V246.431C815.233 247.334 815.398 248.108 815.728 248.755C816.058 249.395 816.519 249.886 817.112 250.23C817.705 250.566 818.398 250.735 819.193 250.735C819.725 250.735 820.207 250.661 820.638 250.512C821.069 250.358 821.442 250.132 821.759 249.836C822.076 249.539 822.315 249.172 822.476 248.735L825.891 249.118C825.675 250.021 825.265 250.809 824.658 251.482C824.059 252.149 823.291 252.667 822.355 253.038C821.419 253.401 820.348 253.583 819.143 253.583Z" fill="#FFEA6B"/>
<path d="M816.714 221.657C816.714 226.077 813.13 229.661 808.709 229.661C804.289 229.661 800.705 226.077 800.705 221.657C800.705 217.236 804.289 213.652 808.709 213.652C813.13 213.652 816.714 217.236 816.714 221.657Z" fill="#FFEA6B"/>
<mask id="mask0_981_2317" style="mask-type:alpha" maskUnits="userSpaceOnUse" x="828" y="237" width="17" height="17">
<path d="M828.746 237.758H844.28V253.292H828.746V237.758Z" fill="#FFEA6B"/>
</mask>
<g mask="url(#mask0_981_2317)">
<path d="M844.281 253.292C844.281 261.871 837.326 268.826 828.747 268.826C820.168 268.826 813.213 261.871 813.213 253.292C813.213 244.713 820.168 237.758 828.747 237.758C837.326 237.758 844.281 244.713 844.281 253.292Z" fill="#FFEA6B"/>
</g>
<path d="M332.262 724.31C324.89 717.797 314.531 710.94 300.542 706.19C303.68 705.195 306.948 704.064 310.161 702.802C317.269 700.01 324.652 696.367 329.616 691.768C332.128 689.441 334.338 686.58 335.345 683.138C336.403 679.524 335.984 675.771 334.064 672.171L333.667 671.426L333.053 670.846L329.504 674.603C333.053 670.846 333.05 670.843 333.047 670.84L333.04 670.834L333.025 670.82L332.988 670.785C332.96 670.76 332.927 670.729 332.887 670.693C332.807 670.622 332.703 670.53 332.574 670.42C332.316 670.201 331.959 669.909 331.502 669.562C330.589 668.868 329.274 667.954 327.55 666.956C324.098 664.96 319.011 662.639 312.234 661.103C303.049 659.021 290.956 658.424 275.851 661.828C276.866 660.72 277.848 659.592 278.772 658.456C280.902 655.837 282.864 653.013 284.2 650.166C285.5 647.395 286.483 644.019 285.805 640.574C285.062 636.795 282.548 633.991 279.005 632.246C275.665 630.601 271.28 629.803 265.977 629.626C244.494 628.91 228.382 637.531 217.748 646.215C217.682 646.27 217.615 646.324 217.549 646.378C217.715 642.543 217.17 638.399 214.968 634.819C211.748 629.587 205.925 626.969 198.125 626.969C190.368 626.969 184.289 629.329 179.693 633.132C175.184 636.864 172.426 641.714 170.726 646.247C170.57 646.663 170.423 647.078 170.283 647.491C170.209 647.381 170.136 647.271 170.061 647.161C167.655 643.596 164.501 639.799 160.621 637.265C156.588 634.632 151.488 633.222 145.931 635.242C141.409 636.887 138.018 639.586 136.651 643.562C135.823 645.971 135.929 648.318 136.416 650.362C131.982 649.49 126.75 648.766 121.385 648.7C114.219 648.611 106.255 649.687 99.6599 653.705C92.7789 657.897 87.9823 664.933 86.8239 675.359C85.628 686.122 89.6217 694.233 96.2372 699.936C102.582 705.406 111.129 708.512 119.188 710.332C122.271 711.028 125.361 711.553 128.341 711.947C122.472 714.804 116.017 718.302 109.847 722.378C100.552 728.518 91.4206 736.278 86.1606 745.536C80.7057 755.137 79.4966 766.289 86.137 778.007L86.4828 778.618L86.9789 779.114L90.6331 775.459C86.9789 779.114 86.9822 779.117 86.9855 779.12L86.9927 779.127L87.0085 779.143L87.046 779.18C87.0737 779.207 87.1066 779.238 87.1447 779.274C87.221 779.346 87.3184 779.436 87.4368 779.541C87.6734 779.751 87.9947 780.022 88.3999 780.334C89.209 780.958 90.3608 781.753 91.8465 782.547C94.8263 784.139 99.1574 785.734 104.715 785.932C111.65 786.18 119.973 784.252 129.512 778.254C129.327 778.817 129.148 779.381 128.979 779.946C127.168 785.982 125.987 793.283 128.511 799.375C129.851 802.608 132.175 805.347 135.593 807.201C138.914 809.004 142.987 809.823 147.697 809.823V804.655C147.697 809.823 147.701 809.823 147.705 809.823L147.713 809.823L147.731 809.823L147.775 809.822C147.807 809.822 147.845 809.821 147.889 809.82C147.976 809.818 148.087 809.814 148.22 809.808C148.487 809.795 148.844 809.771 149.287 809.728C150.173 809.64 151.402 809.473 152.936 809.155C156.007 808.517 160.286 807.275 165.471 804.861C173.811 800.978 184.399 794.111 196.034 782.001C196.391 784.668 196.953 787.54 197.827 790.404C199.491 795.858 202.414 801.703 207.621 805.885C212.943 810.159 220.067 812.226 229.12 811.131C229.195 811.125 229.286 811.119 229.391 811.11L229.432 811.106C229.732 811.081 230.141 811.038 230.641 810.971C231.639 810.835 233.015 810.595 234.628 810.171C237.83 809.328 242.109 807.72 246.196 804.63C250.334 801.501 254.187 796.914 256.482 790.326C257.487 787.44 258.173 784.228 258.474 780.658C262.718 785.055 268.069 790.145 273.937 794.653C280.953 800.043 289.204 804.994 297.507 806.523C301.741 807.303 306.138 807.22 310.395 805.714C314.682 804.196 318.483 801.355 321.671 797.17L321.878 796.899L322.048 796.602L317.561 794.038C322.048 796.602 322.05 796.597 322.053 796.592L322.059 796.582L322.072 796.56L322.099 796.51C322.119 796.474 322.141 796.433 322.165 796.387C322.213 796.296 322.269 796.184 322.332 796.053C322.458 795.791 322.609 795.45 322.768 795.032C323.088 794.196 323.444 793.051 323.703 791.62C324.225 788.737 324.336 784.775 323.053 779.94C321.434 773.838 317.674 766.607 310.144 758.497C311.729 758.806 313.341 759.09 314.96 759.336C321.682 760.357 329.103 760.822 335.16 759.327C338.241 758.566 341.329 757.211 343.745 754.823C346.26 752.338 347.694 749.08 347.933 745.259L348.019 743.871L347.397 742.626L342.775 744.937C347.397 742.626 347.396 742.623 347.394 742.62L347.391 742.614L347.384 742.6L347.365 742.562C347.35 742.533 347.331 742.497 347.308 742.452C347.262 742.364 347.199 742.246 347.12 742.1C346.96 741.809 346.732 741.405 346.432 740.902C345.832 739.899 344.94 738.501 343.724 736.824C341.295 733.472 337.561 728.991 332.262 724.31ZM201.767 730.883C198.348 731.797 194.747 733.442 190.935 735.906C191.061 733.879 190.885 731.752 190.174 729.676C189.091 726.515 186.905 723.885 183.629 722.107C180.666 720.498 176.89 719.626 172.243 719.466C172.514 719.038 172.77 718.597 173.008 718.144C174.225 715.826 175.023 713.095 174.883 710.05C174.778 707.784 174.162 705.536 173.043 703.337C174.492 703.801 176.103 703.978 177.87 703.697C180.297 703.311 182.468 702.127 184.436 700.341C184.867 700.931 185.356 701.504 185.912 702.039C189.01 705.021 193.377 706.1 198.484 704.63C200.119 704.159 201.842 703.428 203.664 702.422C203.692 702.61 203.723 702.798 203.759 702.985C204.157 705.065 205.131 707.32 207.156 709.081C209.172 710.834 211.723 711.658 214.46 711.83C217.366 712.012 220.848 711.485 225.003 710.219C225.01 710.968 225.079 711.738 225.227 712.52C226.126 717.274 229.596 720.991 235.325 723.264C238.034 724.338 241.354 725.146 245.389 725.652C244.873 729.283 246.445 733.039 248.981 736.562C249.158 736.807 249.342 737.056 249.534 737.307C244.706 737.139 239.409 738.04 234.827 741.385C233.041 742.69 231.469 744.287 230.126 746.182C228.46 742.801 226.24 739.307 223.305 736.434C218.206 731.441 210.985 728.42 201.767 730.883Z" stroke="white" stroke-width="10.3356"/>
<path d="M711.918 643.853V652.66H676.55L678.577 643.015C679.136 640.265 679.975 637.959 681.093 636.095C682.258 634.184 683.656 632.623 685.287 631.412C686.965 630.154 688.898 629.175 691.089 628.476C693.279 627.731 695.725 627.125 698.428 626.659C699.826 626.426 701.177 626.1 702.482 625.68C703.833 625.214 705.021 624.632 706.046 623.933C707.118 623.234 707.957 622.349 708.563 621.277C709.215 620.205 709.541 618.924 709.541 617.433C709.541 615.662 708.959 614.241 707.794 613.169C706.629 612.097 704.928 611.561 702.691 611.561C699.942 611.561 697.635 612.377 695.772 614.008C693.954 615.592 692.743 617.805 692.137 620.648L691.508 623.723H682.282L683.12 619.809C684.285 614.404 686.615 610.21 690.11 607.228C693.651 604.246 698.265 602.754 703.949 602.754C706.279 602.754 708.376 603.127 710.24 603.873C712.104 604.572 713.665 605.55 714.923 606.808C716.228 608.02 717.23 609.441 717.929 611.072C718.628 612.703 718.977 614.404 718.977 616.174C718.977 621.254 717.393 625.308 714.224 628.336C711.102 631.319 706.699 633.415 701.014 634.627C698.498 635.14 696.447 635.675 694.863 636.235C693.279 636.794 692.021 637.4 691.089 638.052C690.157 638.704 689.458 639.45 688.992 640.289C688.572 641.081 688.223 641.989 687.943 643.015L687.734 643.853H711.918ZM734.865 603.733H752.618L746.048 634.627H752.199V643.434H744.161L742.204 652.66H732.977L734.935 643.434H713.686V630.433L734.865 603.733ZM721.445 633.369V634.627H736.822L742.413 608.346H741.155L721.445 633.369ZM759.21 629.455H781.017V637.423H759.21V629.455ZM819.342 643.853V652.66H783.974L786.001 643.015C786.56 640.265 787.399 637.959 788.517 636.095C789.682 634.184 791.08 632.623 792.711 631.412C794.389 630.154 796.322 629.175 798.513 628.476C800.703 627.731 803.149 627.125 805.852 626.659C807.25 626.426 808.601 626.1 809.906 625.68C811.257 625.214 812.445 624.632 813.47 623.933C814.542 623.234 815.381 622.349 815.987 621.277C816.639 620.205 816.965 618.924 816.965 617.433C816.965 615.662 816.383 614.241 815.218 613.169C814.053 612.097 812.352 611.561 810.115 611.561C807.366 611.561 805.059 612.377 803.196 614.008C801.378 615.592 800.167 617.805 799.561 620.648L798.932 623.723H789.706L790.544 619.809C791.709 614.404 794.039 610.21 797.534 607.228C801.075 604.246 805.689 602.754 811.373 602.754C813.703 602.754 815.8 603.127 817.664 603.873C819.528 604.572 821.089 605.55 822.347 606.808C823.652 608.02 824.654 609.441 825.353 611.072C826.052 612.703 826.401 614.404 826.401 616.174C826.401 621.254 824.817 625.308 821.648 628.336C818.526 631.319 814.123 633.415 808.438 634.627C805.922 635.14 803.871 635.675 802.287 636.235C800.703 636.794 799.444 637.4 798.513 638.052C797.581 638.704 796.882 639.45 796.416 640.289C795.996 641.081 795.647 641.989 795.367 643.015L795.158 643.853H819.342ZM823.766 630.853L829.498 603.733H860.811V612.54H836.907L834.041 625.82H835.299C836.324 623.77 837.745 622.139 839.563 620.927C841.38 619.716 843.803 619.11 846.832 619.11C848.696 619.11 850.397 619.436 851.934 620.089C853.472 620.741 854.8 621.673 855.918 622.885C857.037 624.049 857.899 625.494 858.505 627.218C859.11 628.942 859.413 630.876 859.413 633.019C859.413 635.815 858.924 638.471 857.945 640.988C857.013 643.504 855.639 645.694 853.821 647.558C852.004 649.422 849.744 650.913 847.042 652.031C844.386 653.103 841.333 653.639 837.885 653.639C835.369 653.639 833.086 653.313 831.035 652.66C828.985 652.008 827.238 651.099 825.793 649.934C824.349 648.769 823.23 647.371 822.438 645.74C821.646 644.063 821.25 642.246 821.25 640.289C821.25 639.357 821.366 638.308 821.599 637.143L821.949 635.466H831.175L830.966 636.444C830.872 636.91 830.802 637.283 830.756 637.563C830.709 637.796 830.686 638.099 830.686 638.471C830.686 640.335 831.385 641.873 832.783 643.084C834.181 644.249 836.348 644.832 839.283 644.832C840.821 644.832 842.242 644.576 843.547 644.063C844.852 643.55 845.97 642.851 846.902 641.966C847.834 641.034 848.556 639.962 849.069 638.751C849.581 637.539 849.837 636.211 849.837 634.767C849.837 632.297 849.278 630.55 848.16 629.525C847.042 628.453 845.644 627.917 843.966 627.917C842.615 627.917 841.52 628.22 840.681 628.826C839.889 629.385 839.283 630.06 838.864 630.853H823.766ZM710.38 690.982C709.774 693.731 708.959 696.108 707.933 698.111C706.955 700.068 705.72 701.676 704.229 702.934C702.738 704.192 700.99 705.124 698.987 705.73C696.983 706.336 694.7 706.639 692.137 706.639C690.18 706.639 688.386 706.359 686.755 705.8C685.124 705.241 683.703 704.425 682.491 703.354C681.326 702.282 680.394 700.977 679.696 699.439C679.043 697.855 678.717 696.038 678.717 693.988C678.717 692.543 678.88 691.099 679.206 689.654L679.905 686.369H689.131L688.153 690.982C688.013 691.634 687.943 692.31 687.943 693.009C687.943 694.593 688.409 695.828 689.341 696.713C690.273 697.552 691.624 697.972 693.395 697.972C695.399 697.972 697.076 697.366 698.428 696.154C699.779 694.943 700.688 693.219 701.154 690.982L706.605 665.4H701.363V656.733H720.515V665.4H715.832L710.38 690.982ZM728.504 670.992L724.171 691.122C723.984 691.914 723.891 692.683 723.891 693.428C723.891 695.199 724.38 696.527 725.359 697.412C726.337 698.251 727.642 698.671 729.273 698.671C731.743 698.671 733.63 697.878 734.935 696.294C736.286 694.663 737.288 692.38 737.94 689.444L741.854 670.992H750.661L744.93 697.412L745.699 697.832L748.215 696.015L752.618 702.445L749.333 704.821C748.448 705.474 747.516 705.94 746.537 706.219C745.605 706.499 744.673 706.639 743.741 706.639C741.831 706.639 740.153 706.103 738.709 705.031C737.264 703.913 736.449 702.305 736.263 700.208H735.004C733.979 702.585 732.581 704.262 730.811 705.241C729.087 706.173 727.13 706.639 724.939 706.639C721.911 706.639 719.441 705.73 717.53 703.913C715.62 702.049 714.665 699.463 714.665 696.154C714.665 694.989 714.805 693.731 715.084 692.38L719.697 670.992H728.504ZM775.216 685.53C775.402 684.645 775.495 683.899 775.495 683.293C775.495 681.616 775.006 680.311 774.028 679.379C773.049 678.447 771.721 677.981 770.044 677.981C767.947 677.981 766.153 678.727 764.662 680.218C763.171 681.709 762.169 683.713 761.656 686.229L757.532 705.66H748.725L756.064 670.992H764.522L763.334 676.583H764.592C765.71 674.254 767.178 672.576 768.995 671.551C770.859 670.526 772.909 670.013 775.146 670.013C778.082 670.013 780.412 670.899 782.136 672.669C783.906 674.44 784.792 676.933 784.792 680.148C784.792 680.894 784.745 681.593 784.652 682.245C784.559 682.851 784.442 683.526 784.302 684.272L781.507 697.343L782.206 697.832L785.211 695.735L789.614 702.305L785.84 704.821C784.069 706.033 782.182 706.639 780.179 706.639C779.153 706.639 778.175 706.452 777.243 706.08C776.311 705.753 775.495 705.287 774.797 704.682C774.098 704.029 773.538 703.26 773.119 702.375C772.7 701.443 772.49 700.395 772.49 699.23C772.49 698.624 772.56 697.925 772.7 697.133L775.216 685.53ZM796.066 691.192C795.973 691.564 795.926 691.961 795.926 692.38C795.926 694.057 796.555 695.455 797.814 696.574C799.118 697.692 800.819 698.251 802.916 698.251C805.106 698.251 806.853 697.855 808.158 697.063C809.463 696.271 810.465 695.339 811.164 694.267L818.153 698.671C817.594 699.603 816.849 700.534 815.917 701.466C815.031 702.398 813.913 703.26 812.562 704.053C811.257 704.798 809.696 705.404 807.879 705.87C806.108 706.382 804.034 706.639 801.658 706.639C799.514 706.639 797.534 706.313 795.717 705.66C793.946 704.961 792.408 704.029 791.104 702.864C789.845 701.653 788.844 700.232 788.098 698.601C787.399 696.923 787.05 695.083 787.05 693.079C787.05 689.91 787.516 686.928 788.448 684.132C789.426 681.336 790.824 678.89 792.641 676.793C794.459 674.696 796.695 673.042 799.351 671.831C802.007 670.619 805.059 670.013 808.508 670.013C810.931 670.013 813.028 670.409 814.798 671.201C816.616 671.947 818.107 672.972 819.272 674.277C820.437 675.535 821.299 676.98 821.858 678.61C822.464 680.241 822.766 681.919 822.766 683.643C822.766 684.202 822.72 684.785 822.627 685.39C822.58 685.95 822.464 686.695 822.277 687.627L821.508 691.192H796.066ZM807.11 677.981C804.92 677.981 803.009 678.541 801.378 679.659C799.794 680.731 798.606 682.059 797.814 683.643H814.169C814.169 681.872 813.61 680.498 812.492 679.519C811.42 678.494 809.626 677.981 807.11 677.981Z" fill="#00CDA4"/>
<path d="M932.025 398.235L916.229 405.145L978.246 546.926L994.042 540.016L932.025 398.235Z" fill="#007964"/>
<path d="M924.023 401.832C948.948 390.93 960.314 361.884 949.411 336.958C938.507 312.031 909.463 300.662 884.538 311.564C859.614 322.467 848.247 351.512 859.15 376.439C870.054 401.366 899.098 412.735 924.023 401.832Z" fill="white"/>
<path d="M912.129 374.799C921.853 370.546 926.287 359.215 922.033 349.49C917.78 339.766 906.449 335.331 896.725 339.584C887.002 343.837 882.567 355.168 886.821 364.893C891.075 374.617 902.405 379.053 912.129 374.799Z" fill="#FF5F39"/>
<path d="M863.834 395.78C851.866 405.125 849.539 422.378 858.707 434.568C864.141 441.792 872.404 445.623 880.785 445.697C878.533 453.781 879.929 462.772 885.363 469.995C890.798 477.219 899.06 481.05 907.442 481.124C905.19 489.208 906.585 498.199 912.02 505.422C917.455 512.646 925.717 516.477 934.099 516.551C931.846 524.635 933.242 533.626 938.676 540.849C947.844 553.04 965.061 555.586 977.359 546.669L863.826 395.76L863.834 395.78Z" fill="#007964"/>
<path d="M960.472 353.509C975.458 351.063 989.708 361.066 992.436 376.072C994.052 384.966 991.257 393.634 985.621 399.839C993.087 403.673 998.742 410.8 1000.36 419.695C1001.97 428.589 999.177 437.256 993.542 443.462C1001.01 447.295 1006.66 454.423 1008.28 463.317C1009.89 472.211 1007.1 480.879 1001.46 487.084C1008.93 490.918 1014.58 498.045 1016.2 506.939C1018.93 521.946 1009.11 536.317 994.214 539.295L960.464 353.488L960.472 353.509Z" fill="#007964"/>
<path d="M64.2444 281.559C59.2388 299.225 58.0611 338.357 93.3942 353.55" stroke="white" stroke-width="10.5077"/>
<path d="M45.2577 340.792C44.6048 353.402 52.4471 377.881 89.0399 374.916" stroke="white" stroke-width="10.5077"/>
<rect x="672.334" y="905.336" width="44.8965" height="16.2391" fill="white"/>
</g>
<defs>
<clipPath id="clip0_981_2317">
<rect width="1058" height="1058" fill="white"/>
</clipPath>
</defs>
</svg>
